<svg xmlns="http://www.w3.org/2000/svg" version="1.1" xmlns:xlink="http://www.w3.org/1999/xlink" xmlns:svgjs="http://svgjs.dev/svgjs" width="1094.144" height="1152"><svg version="1.1" id="SvgjsSvg1023" width="1094.144" height="1152" viewBox="0 0 1094.144 1152" sodipodi:docname="KEZBER-icone_couleur_RGB.ai" xmlns:inkscape="http://www.inkscape.org/namespaces/inkscape" xmlns:sodipodi="http://sodipodi.sourceforge.net/DTD/sodipodi-0.dtd" xmlns="http://www.w3.org/2000/svg" xmlns:svg="http://www.w3.org/2000/svg">
  <defs id="SvgjsDefs1022">
    <clipPath clipPathUnits="userSpaceOnUse" id="SvgjsClipPath1021">
      <path d="M 0,864 H 820.608 V 0 H 0 Z" id="SvgjsPath1020"></path>
    </clipPath>
  </defs>
  <sodipodi:namedview id="SvgjsSodipodi:namedview1019" pagecolor="#ffffff" bordercolor="#000000" borderopacity="0.25" inkscape:showpageshadow="2" inkscape:pageopacity="0.0" inkscape:pagecheckerboard="0" inkscape:deskcolor="#d1d1d1"></sodipodi:namedview>
  <g id="SvgjsG1018" inkscape:groupmode="layer" inkscape:label="KEZBER-icone_couleur_RGB" transform="matrix(1.3333333,0,0,-1.3333333,0,1152)">
    <g id="SvgjsG1017">
      <g id="SvgjsG1016" clip-path="url(#clipPath16)">
        <g id="SvgjsG1015" transform="translate(379.543,166.2354)">
          <path d="m 0,0 c 0,0 279.844,102.341 292.87,107.502 19.342,7.664 33.21,20.072 43.408,44.314 6.62,15.737 102.636,254.824 102.636,254.824 6.499,16.354 -2.271,34.784 -19.06,40.057 l -799.397,251.068 126.428,-428.334 c 3.1,-10.482 11.165,-17.433 22.268,-20.92 l 209.784,-66.028 c 13.256,-4.225 14.746,-22.387 2.356,-28.717 L -171.89,72.156 c -11.579,-7.19 -16.924,-21.232 -13.058,-34.301 l 26.021,-87.977 c 2.506,-7.52 8.57,-16.293 20.559,-19.687 L 212.254,-166.235 -3.371,-26.579 C -13.36,-19.595 -11.416,-4.27 0,0" style="fill:#ff8e06;fill-opacity:1;fill-rule:nonzero;stroke:none" id="SvgjsPath1014"></path>
        </g>
      </g>
    </g>
  </g>
</svg><style>@media (prefers-color-scheme: light) { :root { filter: none; } }
@media (prefers-color-scheme: dark) { :root { filter: none; } }
</style></svg>